<svg width="115" height="40" viewBox="0 0 115 40" fill="none" xmlns="http://www.w3.org/2000/svg">
<g clip-path="url(#clip0_4012_862)">
<g clip-path="url(#clip1_4012_862)">
<path d="M70.7392 30.7069C70.7392 29.1101 70.7392 27.511 70.7392 25.9142C70.7392 25.5198 70.6625 25.1015 71.2233 24.9661C74.3337 24.2152 77.4273 23.7828 80.4012 25.4651C82.9725 26.9216 84.4103 29.9893 83.8855 32.8929C83.3152 36.0508 80.9332 38.5054 77.9233 38.9639C76.4281 39.192 74.9232 39.1231 73.4518 38.7549C71.7457 38.3295 70.8159 37.2365 70.7608 35.5019C70.7081 33.9052 70.7488 32.3084 70.7488 30.7093H70.7392V30.7069ZM74.626 31.5124H74.614C74.614 32.3084 74.638 33.1068 74.6069 33.9028C74.5709 34.7938 75.0454 35.1217 75.8649 35.1811C78.1031 35.3498 79.9578 33.8623 80.0441 31.8118C80.1281 29.7612 78.5225 28.2547 76.2244 28.2286C74.6907 28.2095 74.6452 28.2523 74.6284 29.7754C74.6212 30.3552 74.6284 30.935 74.6284 31.5124" fill="#2FAC66"/>
<path d="M93.0249 24.3341C97.1591 24.3602 100.416 27.6773 100.385 31.8332C100.351 35.8584 96.9813 39.097 92.8693 39.0614C88.7718 39.0234 85.4433 35.6968 85.4841 31.6811C85.5272 27.5681 88.87 24.3103 93.0249 24.3341ZM92.9538 28.2381C90.9715 28.2452 89.3733 29.8301 89.4071 31.7524C89.44 33.6153 91.0604 35.1954 92.944 35.2002C94.9138 35.205 96.4684 33.6367 96.4595 31.6574C96.4471 29.7374 94.904 28.231 92.9538 28.2357" fill="#2FAC66"/>
<path d="M54.1539 31.6786C54.1682 27.5512 57.4847 24.3101 61.6639 24.341C65.7521 24.3719 69.071 27.7009 69.0278 31.7308C68.9823 35.8297 65.7233 39.0541 61.6112 39.0683C57.4464 39.0826 54.1395 35.8059 54.1563 31.6786M61.5441 28.2379C59.6103 28.2545 58.0359 29.8038 58.0359 31.6929C58.0359 33.5889 59.7085 35.2261 61.6328 35.2095C63.5499 35.1929 65.1842 33.5106 65.1338 31.6121C65.0835 29.7254 63.4852 28.226 61.5465 28.2379" fill="#2FAC66"/>
<path d="M102.111 33.8554C103.757 34.6538 105.334 35.2098 107.031 35.3072C107.649 35.3429 108.275 35.3452 108.891 35.2953C109.288 35.2645 109.744 35.1385 109.804 34.6585C109.871 34.1429 109.413 34.0003 109.029 33.8957C107.975 33.6059 106.904 33.3588 105.847 33.0736C105.285 32.9215 104.721 32.7576 104.177 32.5485C102.773 32.0091 101.85 31.0634 101.711 29.5117C101.563 27.8318 102.032 26.342 103.537 25.4724C106.302 23.8756 109.205 23.9136 112.053 25.249C113.309 25.8359 113.947 27.9459 113.42 29.1625C113.178 29.7256 112.849 29.2789 112.627 29.1815C110.964 28.4473 109.226 28.0552 107.407 28.0671C106.763 28.0718 105.854 28.0005 105.751 28.7657C105.639 29.6116 106.621 29.5902 107.204 29.7589C108.361 30.094 109.562 30.284 110.714 30.6333C112.686 31.2274 113.811 32.4962 113.892 34.093C113.983 35.9321 112.919 37.6263 111.088 38.3867C108.909 39.2896 106.657 39.3086 104.421 38.6433C102.622 38.1086 102.114 37.3197 102.111 35.4403C102.111 34.9722 102.111 34.5064 102.111 33.8554Z" fill="#2FAC66"/>
<path d="M45.4764 32.9548C45.4764 31.6836 45.4333 30.41 45.4932 29.1412C45.5292 28.3547 45.232 28.1337 44.482 28.1717C43.4947 28.2216 42.5026 28.1551 41.5153 28.1883C40.9378 28.2097 40.7724 27.8058 40.7509 27.2569C40.6813 25.4344 40.9258 25.1802 42.7925 24.933C46.351 24.4649 49.9192 24.0729 53.4778 23.6142C54.1128 23.5335 54.2541 23.7663 54.2086 24.3129C54.1822 24.6384 54.2062 24.9639 54.2038 25.2942C54.1918 27.4636 53.4778 28.1788 51.3139 28.1859C50.0342 28.1907 49.3944 28.8267 49.3944 30.094C49.3944 32.7458 49.368 35.3975 49.4064 38.0469C49.416 38.7693 49.1812 39.0402 48.467 38.9618C48.0309 38.9142 47.5852 38.9642 47.1515 38.9095C46.0827 38.7716 45.5076 38.1658 45.4836 37.0941C45.4525 35.716 45.4764 34.3331 45.4764 32.9548Z" fill="#2FAC66"/>
<path d="M77.6882 14.732C77.6882 13.4607 77.6451 12.1871 77.7026 10.9182C77.7409 10.1341 77.4414 9.91074 76.6937 9.94879C75.7064 9.99866 74.7144 9.93217 73.7247 9.96781C73.1472 9.98683 72.9842 9.77528 72.9626 9.21457C72.8931 7.35165 73.1376 6.95722 75.0043 6.7101C78.5604 6.23962 82.1286 5.84755 85.6895 5.39134C86.3246 5.31055 86.4659 5.54341 86.4228 6.08992C86.3964 6.41546 86.418 6.74336 86.418 7.07127C86.406 9.2431 85.6943 9.9559 83.5281 9.96301C82.2484 9.96941 81.6086 10.6062 81.6086 11.8734C81.6086 14.5252 81.5846 17.177 81.6206 19.8264C81.6301 20.5488 81.3953 20.8196 80.6812 20.7412C80.2475 20.6937 79.7994 20.7436 79.3656 20.689C78.2969 20.5511 77.7218 19.9452 77.6978 18.876C77.6667 17.4978 77.6906 16.1148 77.6906 14.7343H77.6858L77.6882 14.732Z" fill="#F39200"/>
<path d="M54.4498 1.61108C51.4759 -0.0712298 48.3823 0.361228 45.2719 1.11209C44.7111 1.24753 44.7879 1.66573 44.7879 2.06017C44.7879 3.65694 44.7879 5.25609 44.7879 6.85285H44.7974C44.7974 8.29042 44.7687 9.73037 44.7974 11.168C44.7543 12.3537 44.7879 13.5441 44.7879 14.7297H44.7927C44.7927 16.1103 44.7687 17.4908 44.7998 18.8714C44.8238 19.9407 45.3989 20.5466 46.4677 20.6844C46.9014 20.7414 47.3495 20.6891 47.7832 20.7367C48.4974 20.8127 48.7322 20.5442 48.7226 19.8218C48.701 18.2584 48.701 16.6948 48.7034 15.1314C49.7866 15.281 50.8793 15.2762 51.9696 15.1099C54.977 14.6514 57.359 12.1968 57.9317 9.03891C58.4565 6.13526 57.0211 3.06765 54.4474 1.61108M49.9111 11.3295C49.0916 11.2677 48.6172 10.9422 48.6531 10.0512C48.6866 9.25517 48.6603 8.45913 48.6603 7.66075H48.6723C48.6723 7.08096 48.6675 6.50118 48.6723 5.9214C48.6914 4.39829 48.737 4.3579 50.2706 4.37453C52.5663 4.40305 54.1719 5.90715 54.0879 7.95776C54.0041 10.0107 52.147 11.4982 49.9088 11.3295" fill="#F39200"/>
<path d="M64.2573 15.54C65.3165 15.2502 66.3853 15.003 67.4444 14.7179C68.0076 14.5682 68.5707 14.4019 69.1147 14.1928C70.5165 13.6534 71.4439 12.7101 71.5805 11.1561C71.6212 10.7189 71.6164 10.2959 71.5637 9.89193L71.5805 9.83255C71.5254 8.09559 70.5956 7.00494 68.8894 6.57962C67.4157 6.21132 65.9108 6.1424 64.4154 6.37052C61.408 6.82911 59.0261 9.28366 58.4558 12.4415C58.0652 14.6014 58.7601 16.8517 60.2027 18.4627C60.682 19.1328 61.3625 19.6817 62.2061 20.031C64.3819 20.9339 66.6368 20.9505 68.8703 20.2876C70.6675 19.753 71.1779 18.9641 71.1803 17.0846C71.1803 16.6165 71.1803 16.1484 71.1803 15.4997C69.534 16.2981 67.9549 16.8541 66.2607 16.9515C65.6424 16.9871 65.0169 16.9895 64.4011 16.9396C64.0033 16.9087 63.5504 16.7828 63.488 16.3028C63.4186 15.7871 63.8763 15.6446 64.2597 15.54M62.5967 12.2728C63.2149 10.9018 64.727 10.0179 66.4763 10.1486C66.9699 10.1866 67.3366 10.3221 67.5403 10.6143C67.4756 11.2511 66.6177 11.2511 66.0881 11.4055C64.9378 11.7382 63.7421 11.9283 62.5967 12.2728Z" fill="#F39200"/>
<path d="M89.9175 16.0225C89.9175 15.1219 89.9175 14.2213 89.9175 13.3208C89.9175 13.0998 89.8748 12.8622 90.1912 12.7861C91.945 12.3632 93.6872 12.1185 95.3646 13.0665C96.8143 13.8863 97.6241 15.6161 97.3272 17.2533C97.0063 19.0331 95.6615 20.4183 93.9681 20.6749C93.1219 20.8033 92.2757 20.7628 91.4446 20.5585C90.4837 20.3185 89.9583 19.7031 89.9272 18.7241C89.9014 17.8235 89.9228 16.923 89.9228 16.0225H89.9175ZM92.1086 16.4787H92.1006C92.1006 16.9277 92.1157 17.3769 92.0988 17.8259C92.0766 18.3297 92.345 18.5126 92.8081 18.5483C94.0703 18.6434 95.1157 17.8045 95.1637 16.6474C95.2117 15.4902 94.3059 14.6419 93.009 14.6276C92.1441 14.6181 92.1174 14.6395 92.1086 15.4997C92.1032 15.8276 92.1086 16.1531 92.1086 16.4811" fill="#2FAC66"/>
<path d="M101.54 17.662C102.134 17.5004 102.738 17.3602 103.335 17.201C103.653 17.1155 103.97 17.0205 104.277 16.9041C105.068 16.5999 105.588 16.0676 105.667 15.1932C105.688 14.9461 105.685 14.7085 105.657 14.4803L105.667 14.4471C105.636 13.4681 105.11 12.8527 104.149 12.6127C103.32 12.406 102.472 12.368 101.629 12.4939C99.9317 12.7505 98.5903 14.1358 98.2668 15.9155C98.0463 17.1345 98.4392 18.4033 99.2517 19.3087C99.5219 19.6865 99.9032 19.9954 100.381 20.195C101.607 20.7035 102.877 20.7129 104.138 20.34C105.151 20.0382 105.439 19.5938 105.439 18.5341V17.6407C104.509 18.0897 103.62 18.4033 102.664 18.4604C102.314 18.4794 101.962 18.4818 101.614 18.4533C101.389 18.4367 101.133 18.3654 101.099 18.0945C101.061 17.8022 101.317 17.7238 101.535 17.662M100.598 15.8205C100.949 15.0459 101.799 14.5493 102.786 14.6229C103.064 14.6443 103.27 14.7203 103.388 14.8867C103.351 15.2455 102.868 15.2455 102.568 15.331C101.921 15.5187 101.245 15.6281 100.601 15.8205" fill="#2FAC66"/>
<path d="M18.9793 19.1875C20.4914 18.1254 21.9412 16.9326 23.5827 16.1271C26.5973 14.6514 28.9984 15.3619 30.8987 18.4295C32.8613 21.6041 33.1225 26.5773 30.8029 30.1961C26.674 36.7282 20.5202 40.972 17.587 39.8053C10.8653 36.9634 6.16135 32.1446 4.42162 29.3764C3.08686 27.2545 2.4782 24.8617 2.19782 22.3241C2.16907 22.0721 2.13552 21.1621 2.1451 20.9055C2.36556 22.0389 2.95267 23.0701 3.56852 23.6143C4.97277 24.8546 6.59269 25.1303 8.29649 24.9497C9.75104 24.7952 11.0906 24.1679 12.387 23.4598C13.1802 23.0249 17.5798 20.1665 18.9793 19.1827" fill="#F39200"/>
<path d="M14.7207 22.0076C13.731 22.6396 13.1822 23.0293 12.3891 23.4642C11.0926 24.1747 9.75306 24.7996 8.29851 24.9564C6.59233 25.137 4.9748 24.8613 3.57055 23.6187C2.88281 22.989 2.27653 21.8532 2.14713 20.9217C1.93626 17.9967 4.11451 15.8273 6.73131 16.5805C8.22902 17.0106 9.47511 18.0014 10.7236 18.978C12.0344 20.0021 13.3452 21.1023 14.7207 22.01" fill="#2FAC66"/>
<path d="M16.0681 6.49881C16.0633 8.99136 14.6303 11.042 12.7444 11.358C10.6836 11.705 8.63469 10.1581 8.00685 7.7653C7.49882 5.82399 7.67616 3.98722 8.90308 2.46412C10.7435 0.180644 13.9473 0.73191 15.3612 3.50962C15.8477 4.46721 16.0968 5.49132 16.0681 6.49881Z" fill="#F39200"/>
<path d="M5.21875 8.95082C6.17728 10.184 6.40254 11.9519 5.7795 13.3609C5.00308 15.1217 3.1651 15.6872 1.72011 14.6131C0.404522 13.6365 -0.208938 11.6192 0.294291 9.92975C1.03715 7.43004 3.63957 6.91204 5.21875 8.95082Z" fill="#F39200"/>
<path d="M18.9883 5.45804C18.9931 7.95061 20.4261 10.0013 22.3096 10.3173C24.3705 10.6618 26.4194 9.11734 27.0472 6.72452C27.5552 4.78322 27.3779 2.94645 26.1509 1.42335C24.3106 -0.860126 21.1067 -0.308861 19.6929 2.46885C19.2064 3.42643 18.9571 4.45056 18.9859 5.45804" fill="#2FAC66"/>
<path d="M30.2009 7.49201C29.2448 8.72761 29.0195 10.4931 29.6402 11.9022C30.4165 13.6629 32.2546 14.2308 33.702 13.1543C35.0151 12.1778 35.6286 10.1581 35.1253 8.47098C34.3825 5.97128 31.7801 5.45565 30.2009 7.49201Z" fill="#2FAC66"/>
</g>
</g>
<defs>
<clipPath id="clip0_4012_862">
<rect width="115" height="40" fill="white"/>
</clipPath>
<clipPath id="clip1_4012_862">
<rect width="114" height="40" fill="white" transform="translate(0.119141)"/>
</clipPath>
</defs>
</svg>
