<svg width="16" height="19" viewBox="0 0 16 19" fill="none" xmlns="http://www.w3.org/2000/svg">
<path d="M16 4.60055V7.87535C15.4437 7.81946 14.7209 7.68944 13.9213 7.38808C12.8772 6.99437 12.1001 6.45608 11.5911 6.03929V12.6582L11.5781 12.6375C11.5863 12.7687 11.5911 12.9024 11.5911 13.0373C11.5911 16.3242 8.99151 19 5.79553 19C2.59954 19 0 16.3242 0 13.0373C0 9.75032 2.59954 7.07338 5.79553 7.07338C6.10851 7.07338 6.41559 7.09888 6.71559 7.1487V10.3761C6.4274 10.2704 6.11796 10.2133 5.79553 10.2133C4.28257 10.2133 3.05071 11.4795 3.05071 13.0373C3.05071 14.5951 4.28257 15.8613 5.79553 15.8613C7.30848 15.8613 8.54034 14.5939 8.54034 13.0373C8.54034 12.979 8.53916 12.9206 8.53562 12.8623V0H11.7162C11.7281 0.277053 11.7387 0.556549 11.7505 0.833602C11.7718 1.3792 11.9607 1.90294 12.2902 2.33188C12.6765 2.83617 13.2469 3.42185 14.0477 3.88968C14.7977 4.32591 15.5016 4.51427 16 4.60298V4.60055Z" fill="#F39200"/>
</svg>
