<svg width="21" height="14" viewBox="0 0 21 14" fill="none" xmlns="http://www.w3.org/2000/svg">
<path d="M20.5613 2.18613C20.3198 1.32559 19.6083 0.647969 18.7047 0.417969C17.0669 -1.11759e-07 10.5 0 10.5 0C10.5 0 3.93312 -1.11759e-07 2.29528 0.417969C1.39187 0.647969 0.680204 1.32559 0.438745 2.18613C0 3.74582 0 7.00012 0 7.00012C0 7.00012 0 10.2543 0.438745 11.8139C0.680204 12.6744 1.39187 13.3522 2.29528 13.5822C3.93312 14 10.5 14 10.5 14C10.5 14 17.0669 14 18.7047 13.5822C19.6083 13.3522 20.3198 12.6744 20.5613 11.8139C21 10.2543 21 7.00012 21 7.00012C21 7.00012 21 3.74582 20.5613 2.18613ZM8.39989 10.0002V4.00004L13.8558 7.00012L8.39989 10.0002Z" fill="#F39200"/>
</svg>
